<?xml version="1.0" encoding="UTF-8"?>
<!DOCTYPE svg PUBLIC "-//W3C//DTD SVG 1.1//EN" "http://www.w3.org/Graphics/SVG/1.1/DTD/svg11.dtd">
<!-- Creator: CorelDRAW 2017 -->
<svg xmlns="http://www.w3.org/2000/svg" xml:space="preserve" width="250px" height="250px" version="1.1" style="shape-rendering:geometricPrecision; text-rendering:geometricPrecision; image-rendering:optimizeQuality; fill-rule:evenodd; clip-rule:evenodd"
viewBox="0 0 250 250"
 xmlns:xlink="http://www.w3.org/1999/xlink">
 <defs>
  <style type="text/css">
   <![CDATA[
    .fil0 {fill:black;fill-rule:nonzero}
   ]]>
  </style>
 </defs>
 <g id="Слой_x0020_1">
  <metadata id="CorelCorpID_0Corel-Layer"/>
  <path class="fil0" d="M130.26 51.33l1.4 2.97 3.1 1.88 2.57 6.2 -4.5 1.99 6.47 0.64 1.94 -8.29 -1.18 -3.13 3.99 -5.03 -0.67 -1.1 1.02 -0.63 1.1 1.81 -4.09 5.16 1.08 2.84 -2.26 9.66 -8.54 -0.84 3.56 5.5 -1.23 4.08 8.79 -4.08 22.27 -4.55 14.36 0.32 12.4 -4.19 12.91 -2.25 10.67 -4.27c5.58,2.29 11.15,4.59 16.72,6.89l-16.4 16.75 -16.38 5.02 -11.25 8.16 -47.35 -4.55 29.33 8.19 44.76 2.43 14.66 13.13c-6.64,4.04 -13.27,8.1 -19.91,12.14l-21.67 0 -10.1 5.56 -13.65 -5.55 -9.13 1.14 -10.37 -4.03 -5.93 1.77 -6.47 -5.79 1.38 -13.89 -1.95 -2.53 0.17 4.27 -2.72 5.2 2.1 10.68 -1.25 2.34 2.32 4.63 -1.64 4.92 1.53 5.97 -1.69 6.06 1.96 8.25 -2.57 4.25 2.17 5.78 -2.11 4.55 1.46 4.69 -1.69 3.54 1.39 3.76 -1.64 2.53 0.81 3.07 -1.24 1.99 0.48 5.52 -4.55 10.31 -4.55 -10.31 0.48 -5.52 -1.24 -1.99 0.81 -3.07 -1.64 -2.53 1.39 -3.76 -1.69 -3.54 1.46 -4.69 -2.11 -4.55 2.17 -5.78 -2.57 -4.25 1.97 -8.25 -1.7 -6.06 1.53 -5.97 -1.64 -4.92 2.32 -4.63 -1.25 -2.34 2.1 -10.68 -2.72 -5.2 0.17 -4.27 -1.95 2.53 1.38 13.89 -6.47 5.79 -5.93 -1.77 -10.37 4.03 -9.13 -1.14 -13.65 5.55 -10.1 -5.56 -21.67 0c-6.64,-4.04 -13.27,-8.1 -19.91,-12.14l14.66 -13.13 44.76 -2.43 29.33 -8.19 -47.35 4.55 -11.25 -8.16 -16.38 -5.02 -16.4 -16.75c5.57,-2.3 11.14,-4.6 16.72,-6.89l10.67 4.27 12.91 2.25 12.4 4.19 14.35 -0.32 22.28 4.55 8.79 4.08 -1.23 -4.08 3.56 -5.5 -8.54 0.84 -2.26 -9.66 1.08 -2.84 -4.09 -5.16 1.1 -1.81 1.02 0.63 -0.67 1.1 3.99 5.03 -1.18 3.13 1.94 8.29 6.47 -0.64 -4.5 -1.99 2.57 -6.2 3.09 -1.87 1.41 -2.98 5.11 -1.85 5.41 1.85zm-107.03 59.85l83.9 -7.77 -71.53 -3.31 -12.37 11.08zm24.03 -11.73l62.99 2.92 -8.5 -2.29 -21.76 -2.41 -32.73 1.78zm35.84 -2.63l18.61 2.06 12.69 -10.8c-10.44,2.9 -20.88,5.79 -31.3,8.74zm25.28 0.82l6.14 -1.17 1.57 -1.92 -7.71 3.09zm6.38 0l-5.51 1.05 7.26 -0.2 -1.75 -0.85zm2.96 2l-11.76 0.34 9.54 2.56 2.22 -2.9zm-5.13 7.67l-15.39 15.86 7.69 -2.98 7.7 -12.88zm-17.94 16.77l16.6 -17.1 -23.86 16.2 7.26 0.9zm-9.18 -1.03l13.62 -9.25 -19.77 11.75 6.15 -2.5zm-13.28 5.34l37.29 -22.16 -45.84 17.45 8.55 4.71zm-10.08 -5.41l42.15 -16.04 -59.21 16.04 17.06 0zm-21.46 -0.04l68.25 -18.49 -85.57 7.92 17.32 10.57zm-19.69 -60.02l45.04 8.77 -21.16 -10.28 -10.26 -4.11 -13.62 5.62zm28.21 -0.74l16.8 8.18 -8.2 -6.67 -8.6 -1.51zm11.79 2.57l8.83 7.17 0.07 -4.17 -8.9 -3zm10.09 3.16l-0.08 4.34 10.79 -4.58 -10.71 0.24zm13.86 -0.28l-11.28 4.78 28.22 -1.25c-5.68,-1.1 -11.14,-2.22 -16.94,-3.53zm21.97 4.5l-25.49 1.13 32.41 2.08 -6.92 -3.21zm9.22 4.55l-36.51 -2.34 34.87 6.8 1.64 -4.46zm-1.62 5.82l-40.47 7.98 42.12 -4.05 -1.65 -3.93zm-52.28 9.09l45.15 -8.9 -54.69 1.98 9.54 6.92zm-11.21 -8.05l46.77 -1.7 -58.72 -1.96 11.95 3.66zm-16.2 -5.05l32.22 -5.38 -46.34 -9.03 14.12 14.41zm80 12.42l-8.98 6.48 11.13 -4.46 -2.15 -2.02zm-74.22 -12.18l66.81 2.24 -37.03 -7.21 -29.78 4.97zm83.83 120.28l0 -5.59 -2.42 -0.04 2.42 5.63zm-2.69 -6.83l2.21 0.04 -1.93 -3.17 -0.28 3.13zm0.03 -5.81l1 -0.62 -1.35 0.06 0.35 0.56zm-0.62 -1.75l2.18 -0.08 -1.81 -1.35 -0.37 1.43zm0.17 -3.32l1.75 -1.38 -2.48 0.25 0.73 1.13zm-0.87 -2.31l3.03 -0.31 -2.27 -1.75 -0.76 2.06zm0.66 -4.05l2.33 -2.34 -3.3 0.31 0.97 2.03zm-1.04 -3.22l3.6 -0.34 -2.7 -2.57 -0.9 2.91zm0.69 -5.26l2.83 -4.59 -4.2 1.64 1.37 2.95zm-1.15 -4.32l4.22 -1.65 -2.79 -2.16 -1.43 3.81zm1.17 -5.91l2.91 -4.63 -4.63 1.78 1.72 2.85zm-1.75 -4.11l5.09 -1.96 -3.68 -4.01 -1.41 5.97zm1.5 -7.95l3.4 -1.05 -4.51 -2.91 1.11 3.96zm-1.33 -5.94l4.65 -0.18 -3.59 -3.95 -1.06 4.13zm1.07 -6.32l3.36 -2.46 -4.41 -0.68 1.05 3.14zm-1.03 -4.35l4.51 0.7 -2.95 -3.81 -1.56 3.11zm1.72 -4.98l1.66 -0.69 -2.16 -0.25 0.5 0.94zm-0.64 -3.25l3.81 -3.31 -2.36 -4.1 -1.45 7.41zm1.15 -10.41l2.3 -4.76 -4.16 1.2 1.86 3.56zm-2.09 -4.73l4.16 -1.2 -4 -2.85 -0.16 4.05zm-2.08 -29.04l5.55 -4.14 -6.63 0.57 1.08 3.57zm-0.7 -4.8l6.98 -0.6 -3.97 -4.06 -3.01 4.66zm2.75 -6.33l3.86 -4.59 -8.07 2.72 4.21 1.87zm-4.75 -2.94l8.01 -2.71 -6.47 -1.12c-0.52,1.37 -0.98,2.53 -1.54,3.83zm2.83 -4.82l4.26 0.74 -2.85 -1.59 -1.41 0.85zm2.18 -1.79l3.23 1.81 -2.52 -3.32 -0.71 1.51zm1.56 -2.37l3.23 4.27 -0.08 -5.41 -3.15 1.14zm3.19 34.03l0 -3.25 -5.31 3.25 5.31 0zm-18.12 34.19l4.46 1.33 3.56 -14.77 -8.02 13.44zm5.92 0.37l4.35 -3.9 -1 -10.02 -3.35 13.92zm114.54 -8.32l-85.57 -7.92 68.25 18.49 17.32 -10.57zm-21.72 10.61l-59.21 -16.04 42.15 16.04 17.06 0zm-18.59 0.7l-45.84 -17.45 37.29 22.16 8.55 -4.71zm-15.68 1.87l-19.77 -11.75 13.62 9.25 6.15 2.5zm-8.07 -2.37l-23.86 -16.2 16.6 17.1 7.26 -0.9zm-9.81 -0.01l-15.39 -15.86 7.7 12.88 7.69 2.98zm-9.01 -2.85l-8.02 -13.44 3.56 14.77 4.46 -1.33zm-0.92 -16.91l83.9 7.77 -12.37 -11.08 -71.53 3.31zm86.46 -39.33l-46.34 9.03 32.22 5.38 14.12 -14.41zm-18.37 15.8l-58.72 1.96 46.77 1.7 11.95 -3.66zm-13.62 4.79l-54.69 -1.98 45.15 8.9 9.54 -6.92zm-21.35 5.81l-40.47 -7.98 -1.65 3.93 42.12 4.05zm-40.45 -9.34l34.87 -6.8 -36.51 2.34 1.64 4.46zm0.67 -5.8l32.4 -2.08 -25.49 -1.13 -6.91 3.21zm11.93 -4.18l28.23 1.25 -11.28 -4.78c-5.8,1.31 -11.26,2.43 -16.95,3.53zm20.1 -3.49l10.79 4.58 -0.08 -4.34 -10.71 -0.24zm11.9 0.08l0.07 4.17 8.83 -7.17 -8.9 3zm12.09 -4.06l-8.2 6.67 16.8 -8.18 -8.6 1.51zm12.93 -2.28l-21.16 10.28 45.04 -8.77 -13.62 -5.62 -10.26 4.11zm-69.56 26.67l12.69 10.8 18.61 -2.06c-10.42,-2.95 -20.86,-5.84 -31.3,-8.74zm34.41 9.59l-21.76 2.41 -8.5 2.29 62.99 -2.92 -32.73 -1.78zm-35.51 4.87l9.54 -2.56 -11.76 -0.34 2.22 2.9zm-1.01 -4.05l7.26 0.2 -5.51 -1.05 -1.75 0.85zm1.99 -2.02l6.14 1.17 -7.71 -3.09 1.57 1.92zm-2.42 -3.54l11.13 4.46 -8.98 -6.48 -2.15 2.02zm46.59 -19.17l-37.03 7.21 66.81 -2.24 -29.78 -4.97zm-54.05 125.25l2.42 -5.63 -2.43 0.04 0.01 5.59zm2.69 -6.83l-0.28 -3.13 -1.94 3.17 2.22 -0.04zm-0.03 -5.81l0.35 -0.56 -1.36 -0.06 1.01 0.62zm0.62 -1.75l-0.37 -1.43 -1.81 1.35 2.18 0.08zm-0.17 -3.32l0.73 -1.13 -2.48 -0.25 1.75 1.38zm0.87 -2.31l-0.76 -2.06 -2.27 1.75 3.03 0.31zm-0.66 -4.05l0.97 -2.03 -3.3 -0.31 2.33 2.34zm1.04 -3.22l-0.9 -2.91 -2.7 2.57 3.6 0.34zm-0.69 -5.26l1.37 -2.95 -4.2 -1.64 2.83 4.59zm1.15 -4.32l-1.43 -3.81 -2.79 2.16 4.22 1.65zm-1.15 -5.94l1.7 -2.82 -4.44 -1.78 2.74 4.6zm1.73 -4.1l-1.41 -5.92 -3.47 3.98 4.88 1.94zm-1.5 -7.95l1.08 -3.84 -3.99 2.82 2.91 1.02zm1.33 -5.92l-1.05 -4.1 -3.4 3.92 4.45 0.18zm-1.06 -6.33l1.04 -3.13 -4.23 0.68 3.19 2.45zm1.02 -4.33l-1.54 -3.09 -2.79 3.78 4.33 -0.69zm-1.72 -4.98l0.51 -0.95 -2.24 0.25 1.73 0.7zm0.66 -3.2l-1.49 -7.54 -2.6 4.17 4.09 3.37zm-1.2 -10.43l1.88 -3.59 -4.39 -1.21 2.51 4.8zm2.12 -4.76l-0.16 -4.09 -4.23 2.87 4.39 1.22zm0.57 -5.94l2.32 -1.12 -6 -3.56c1.25,1.58 2.47,3.12 3.68,4.68zm3.3 8.51l-1 10.02 4.35 3.9 -3.35 -13.92zm-3.57 -20.64l-5.42 -3.26 0 3.26 5.42 0zm1.82 -9.06l-5.94 4.15 7.47 0 -1.53 -4.15zm1.49 5.35l-7.18 0 5.73 3.44 1.45 -3.44zm-11.45 0l-7.07 0 1.44 3.44 5.63 -3.44zm-7.11 -1.2l7.36 0 -5.83 -4.14 -1.53 4.14zm7.22 105.83l1.48 0.53 0 -1.44 -1.48 0.91zm1.48 1.79l-1.46 -0.52 1.46 2.39 0 -1.87zm2.66 -0.52l-1.46 0.52 0 1.87 1.46 -2.39zm-1.46 -0.74l1.48 -0.53 -1.48 -0.91 0 1.44zm-2.7 -6.03l1.5 -0.03 0 -1.16 -1.5 1.19zm1.5 1.16l-1.52 0.03 1.52 1.14 0 -1.17zm2.72 0.03l-1.52 -0.03 0 1.17 1.52 -1.14zm-1.52 -1.22l1.5 0.03 -1.5 -1.19 0 1.16zm2.46 -13.41l-2.48 -0.4 0.01 2.76 2.47 -2.36zm-2.49 -1.61l2.58 0.42 -2.56 -4.17 -0.02 3.75zm-3.72 0.41l2.53 -0.41 0.02 -3.72 -2.55 4.13zm2.53 0.8l-2.44 0.4 2.46 2.35 -0.02 -2.75zm-1.97 7.58l1.99 -0.09 0 -1.9 -1.99 1.99zm1.99 1.1l-1.85 0.09 1.85 1.43 0 -1.52zm3.05 0.09l-1.85 -0.09 0 1.52 1.85 -1.43zm-1.85 -1.28l1.99 0.09 -1.99 -1.99 0 1.9zm0.07 -22.71l-0.09 3.86 2.55 0.29 -2.46 -4.15zm-1.28 3.86l0.08 -3.81 -2.57 4.09 2.49 -0.28zm0.01 3.09l-0.02 -1.89 -2.11 0.24 2.13 1.65zm1.18 -1.89l0.01 1.9 2.14 -1.65 -2.15 -0.25zm-1.02 -8.64l0.12 -4.79 -3.51 1.09 3.39 3.7zm1.31 -4.77l-0.11 4.62 3.12 -3.57 -3.01 -1.05zm-0.13 -4.92l0.11 2.97 3.98 -2.81 -4.09 -0.16zm-1.08 2.97l-0.12 -2.97 -4.23 0.16 4.35 2.81zm-0.33 -21.3l-0.05 -3.45 -3.5 3.04 3.55 0.41zm-2.72 2.7l2.87 3.69 -0.12 -4.83 -2.75 1.14zm4.06 3.73l2.74 -3.71 -2.86 -1.16 0.12 4.87zm3.5 -6.84l-3.7 -3.06 0.05 3.48 3.65 -0.42zm-4.71 16.5l-0.11 -2.64 -2.78 -0.54 2.89 3.18zm1.09 -2.65l0.1 2.74 2.85 -3.29 -2.95 0.55zm0.12 -4.08l-0.11 2.86 3.09 -0.57 -2.98 -2.29zm-1.31 2.87l0.11 -2.83 -3.08 2.26 2.97 0.57zm-1.94 -23.47l1.97 0 -0.08 -3.93 -1.89 3.93zm1.97 1.19l-1.89 0 1.82 3.17 0.07 -3.17zm1.19 0l-0.07 3.14 1.95 -3.14 -1.88 0zm0 -1.19l1.97 0 -2.04 -3.91 0.07 3.91zm-1.32 -7.59l0 -4.21 -4 1.35 4 2.86zm1.2 -4.23l0 4.26 4.24 -2.88 -4.24 -1.38zm0 -4.98l0 3.73 3.91 1.27 -3.91 -5zm-1.2 3.74l0 -3.68 -3.67 4.92 3.67 -1.24zm-8.42 -6.95l5.94 0.58 -4.67 -2.68 -1.27 2.1zm6.57 1.84l-5.88 -0.57 1.68 1.57 4.2 -1zm-1.55 1.59c-3,0.72 -2.18,0.21 -3.62,1.96l3.62 -1.96zm1.31 0.65l-6.02 3.27 2.63 1.27 3.39 -4.54zm6.72 -0.73l4.27 2.53 -1.52 -1.85 -2.75 -0.68zm-1.25 -1.54l4.16 1.03 1.68 -1.58 -5.84 0.55zm0.13 -1.21l6.39 -0.6 -1.28 -2.12 -5.11 2.72zm-2.25 -2.91l-0.05 2.78 5.24 -2.78 -5.19 0zm-1.24 2.94l0.05 -2.94 -5.19 0 5.14 2.94zm8.45 -15.1l1.08 -3.59 -6.85 -0.57 5.77 4.16zm0.71 -4.82l-3.03 -4.67 -4.19 4.07 7.22 0.6zm-2.76 -6.33l4.21 -1.87 -8.07 -2.72 3.86 4.59zm4.75 -2.94c-0.56,-1.3 -1.02,-2.46 -1.54,-3.83l-6.47 1.12 8.01 2.71zm-2.83 -4.82l-1.41 -0.85 -2.85 1.59 4.26 -0.74zm-2.18 -1.79l-0.71 -1.51 -2.52 3.32 3.23 -1.81zm-1.57 -2.36l-3.37 -1.15 0.09 5.49 3.28 -4.34zm-3.29 7.67l-0.09 3.7 3.6 0.47 -3.51 -4.17zm-1.28 3.69l0.08 -3.6 -3.42 4.07 3.34 -0.47zm-0.01 5.31l0 -4.1 -3.53 0.49 3.53 3.61zm1.19 -4.1l0 4.15 3.76 -3.66 -3.76 -0.49zm5.67 12.08l-5.67 0.07 0.05 3.86 5.62 -3.93zm-5.67 -1.12l5.78 -0.07 -5.78 -4.17 0 4.24zm-1.14 5.01l-0.05 -3.82 -5.43 -0.07 5.48 3.89zm-0.06 -5.01l0 -4.21 -5.55 4.14 5.55 0.07z"/>
 </g>
</svg>
