<?xml version='1.0' encoding='utf-8'?>
<svg xmlns="http://www.w3.org/2000/svg" version="1.0" width="494.427216pt" height="438.832677pt" viewBox="0 0 494.427216 438.832677" preserveAspectRatio="xMidYMid meet"> <metadata> Created by potrace 1.16, written by Peter Selinger 2001-2019 </metadata> <g transform="translate(-203.134502,580.000000) scale(0.100000,-0.100000)" fill="#000000" stroke="none"> <path d="M4362 5769 c-118 -58 -234 -217 -295 -400 -98 -296 -114 -675 -47 -1085 23 -135 75 -352 115 -479 l27 -84 -94 -183 c-128 -248 -326 -570 -369 -604 -8 -6 -60 -21 -115 -33 -352 -76 -732 -233 -1005 -414 -168 -112 -272 -204 -376 -332 -201 -249 -228 -502 -67 -643 85 -76 208 -107 384 -99 421 20 946 314 1406 790 l128 132 81 7 c105 8 637 8 740 0 l80 -7 175 -176 c452 -453 944 -723 1357 -746 231 -12 397 57 464 194 33 68 33 210 0 303 -108 308 -497 627 -1016 833 -156 62 -327 116 -485 153 -58 13 -115 29 -128 34 -42 18 -273 392 -408 661 l-64 129 35 118 c48 159 90 342 117 514 30 192 33 609 5 758 -63 343 -189 574 -359 659 -53 27 -72 31 -143 31 -71 0 -90 -4 -143 -31z m240 -6 c179 -69 322 -314 383 -653 23 -130 31 -407 16 -566 -22 -235 -82 -534 -144 -718 l-23 -69 -13 31 c-11 26 -10 41 12 114 156 521 178 1058 60 1423 -60 185 -164 333 -268 381 -70 33 -171 33 -240 0 -103 -48 -210 -200 -270 -381 -51 -156 -69 -298 -69 -540 0 -292 32 -524 115 -826 37 -134 39 -149 27 -174 -14 -26 -15 -24 -46 77 -101 330 -149 664 -139 973 10 342 83 600 220 781 106 140 252 197 379 147z m1 -74 c67 -35 105 -68 152 -134 219 -306 253 -890 89 -1528 -44 -171 -49 -182 -63 -144 -9 24 -4 57 29 190 51 209 77 372 91 571 33 481 -88 892 -293 997 -52 26 -155 26 -208 -1 -88 -45 -171 -164 -224 -322 -48 -142 -68 -292 -69 -508 -1 -272 30 -501 104 -781 29 -106 30 -121 19 -150 l-14 -32 -28 99 c-41 144 -74 299 -99 464 -31 205 -32 532 0 704 53 295 168 504 315 572 66 31 141 32 199 3z m-20 -65 c60 -31 97 -66 140 -133 189 -288 214 -792 70 -1385 -32 -133 -37 -147 -49 -131 -19 26 -18 37 16 175 60 247 83 434 82 675 0 308 -46 505 -154 663 -92 134 -263 138 -361 8 -67 -87 -123 -249 -148 -426 -17 -123 -14 -411 6 -565 18 -143 32 -213 72 -382 23 -98 25 -117 13 -140 l-13 -28 -18 60 c-67 217 -111 531 -112 780 -1 405 102 710 273 813 62 37 130 43 183 16z m-5 -73 c129 -66 219 -291 241 -599 16 -227 -16 -536 -82 -802 -23 -93 -24 -94 -36 -65 -14 33 -13 38 23 206 42 195 59 348 59 549 0 340 -68 573 -192 657 -47 32 -125 32 -172 0 -192 -129 -251 -664 -133 -1206 36 -168 37 -173 24 -206 -12 -29 -13 -28 -36 60 -88 337 -111 730 -59 1003 59 308 214 480 363 403z m-19 -65 c142 -74 228 -408 201 -778 -16 -230 -73 -549 -93 -529 -17 17 -12 92 16 236 85 449 48 863 -90 1001 -30 30 -40 34 -87 34 -46 0 -59 -4 -85 -29 -36 -34 -84 -130 -105 -214 -53 -206 -44 -535 25 -877 17 -84 19 -111 10 -134 -6 -16 -13 -27 -15 -25 -3 2 -16 58 -29 124 -80 379 -81 744 -4 971 30 86 48 122 84 164 55 66 115 85 172 56z m6 -80 c44 -34 93 -140 118 -254 17 -80 21 -131 20 -292 0 -192 -7 -261 -50 -495 l-16 -90 -14 40 c-12 34 -11 50 2 115 43 209 59 535 35 690 -16 97 -49 188 -82 226 -25 29 -37 34 -73 34 -37 0 -48 -5 -74 -35 -32 -37 -64 -128 -81 -228 -24 -150 -7 -488 35 -688 12 -58 13 -79 3 -112 l-12 -41 -13 59 c-101 470 -71 916 71 1058 44 45 84 48 131 13z m-13 -73 c65 -68 98 -218 98 -439 0 -137 -17 -317 -42 -434 l-11 -55 -10 39 c-7 29 -5 70 9 160 27 171 27 492 0 589 -24 87 -47 117 -91 117 -43 0 -66 -28 -91 -112 -27 -89 -27 -434 -1 -592 12 -68 16 -126 12 -154 -4 -24 -8 -42 -11 -40 -2 2 -10 38 -18 79 -55 288 -45 650 21 784 23 45 64 85 88 85 12 0 33 -12 47 -27z m-6 -80 c35 -53 49 -143 49 -328 0 -185 -21 -390 -37 -361 -12 22 -12 74 1 171 27 211 21 407 -15 477 -20 38 -63 36 -82 -4 -34 -72 -37 -295 -7 -501 9 -61 10 -99 3 -123 -5 -20 -11 -34 -13 -32 -2 1 -11 66 -20 143 -23 184 -17 402 13 493 34 105 67 125 108 65z m-6 -104 c23 -94 12 -455 -12 -431 -7 7 -6 62 2 175 16 191 8 272 -25 272 -33 0 -41 -86 -25 -275 9 -114 10 -164 3 -171 -15 -15 -28 129 -27 276 3 203 51 292 84 154z m-27 -189 l-7 -115 -9 95 c-5 52 -5 120 -1 150 l7 55 9 -35 c4 -19 5 -87 1 -150z m0 -375 l-6 -50 -9 35 c-4 19 -5 58 -1 85 l6 50 9 -35 c4 -19 5 -57 1 -85z m-24 -95 c-1 -19 -4 -46 -8 -60 -7 -23 -8 -23 -15 13 -8 45 2 116 15 95 5 -7 8 -29 8 -48z m54 -47 l-10 -38 -8 47 c-4 26 -4 60 0 75 l8 28 9 -37 c6 -24 6 -52 1 -75z m-28 -121 c-8 -46 -8 -47 -17 -17 -5 17 -6 55 -2 85 l7 55 10 -38 c5 -21 6 -59 2 -85z m-61 15 c-3 -22 -10 -35 -14 -30 -13 13 -15 44 -6 88 l9 40 8 -30 c5 -16 6 -47 3 -68z m128 -9 c-2 -16 -8 -28 -12 -28 -14 0 -22 56 -14 97 l7 38 11 -40 c7 -22 10 -52 8 -67z m-97 -115 c-3 -19 -10 -31 -14 -28 -15 9 -19 56 -8 92 l11 36 9 -33 c5 -19 6 -49 2 -67z m64 -12 l-12 -36 -10 34 c-4 19 -5 51 -1 70 l7 36 14 -34 c11 -27 12 -40 2 -70z m-126 63 c2 -14 -1 -44 -8 -67 l-12 -41 -7 38 c-8 40 0 96 14 96 4 0 10 -12 13 -26z m192 -4 c4 -16 3 -45 -1 -62 l-7 -33 -12 36 c-13 36 -10 89 5 89 5 0 11 -13 15 -30z m-97 -165 c-4 -16 -8 -32 -9 -35 0 -3 -6 11 -13 30 -9 25 -10 44 -2 69 l10 33 12 -33 c7 -21 8 -45 2 -64z m136 -3 l-7 -37 -14 33 c-9 21 -11 47 -7 70 l7 37 14 -33 c9 -21 11 -47 7 -70z m-269 11 c-3 -18 -10 -35 -15 -38 -15 -9 -22 58 -10 90 l12 30 10 -25 c5 -14 7 -39 3 -57z m69 43 c3 -13 0 -41 -8 -62 l-13 -39 -7 39 c-13 68 12 125 28 62z m129 -58 l-9 -33 -12 36 c-10 28 -10 43 -1 65 l12 29 10 -32 c6 -22 7 -44 0 -65z m-238 -95 c-3 -18 -10 -33 -14 -33 -16 0 -22 52 -10 89 l12 36 9 -30 c5 -16 6 -45 3 -62z m70 0 c-3 -18 -10 -33 -14 -33 -16 0 -22 52 -10 89 l12 36 9 -30 c5 -16 6 -45 3 -62z m277 -8 l-9 -30 -13 27 c-8 17 -10 40 -5 65 l8 38 14 -35 c11 -24 12 -43 5 -65z m-207 8 c-3 -18 -10 -33 -15 -33 -15 0 -21 55 -9 86 l11 29 10 -25 c5 -14 7 -40 3 -57z m69 46 c6 -34 -1 -79 -14 -79 -13 0 -22 54 -14 84 8 35 20 33 28 -5z m67 4 c10 -28 3 -83 -11 -83 -13 0 -22 54 -14 84 8 33 12 33 25 -1z m-315 -147 c-4 -20 -11 -36 -15 -36 -16 0 -22 53 -10 83 12 29 13 29 22 9 5 -11 6 -37 3 -56z m72 -8 c-6 -15 -13 -28 -18 -28 -14 0 -18 52 -7 84 l11 31 12 -30 c8 -20 9 -37 2 -57z m68 -6 l-10 -35 -13 31 c-10 24 -10 38 -1 64 l12 33 11 -29 c9 -21 9 -38 1 -64z m72 -4 l-12 -33 -13 32 c-10 25 -10 39 -1 65 l12 33 13 -32 c10 -25 10 -39 1 -65z m70 1 l-11 -33 -12 34 c-9 25 -9 44 -2 65 l11 30 13 -32 c10 -24 10 -39 1 -64z m77 10 c-14 -61 -42 -14 -30 49 l7 37 15 -28 c9 -18 12 -39 8 -58z m70 0 c-4 -16 -10 -29 -15 -29 -13 0 -22 54 -14 85 l7 28 14 -27 c9 -17 12 -39 8 -57z m-475 -107 l-12 -27 -10 25 c-6 17 -5 37 4 64 l13 40 8 -38 c7 -26 6 -46 -3 -64z m438 0 l-10 -27 -13 29 c-9 21 -9 38 -2 64 l11 34 13 -36 c9 -27 9 -44 1 -64z m75 3 l-9 -30 -16 29 c-12 23 -13 36 -4 64 l10 35 14 -33 c10 -24 11 -43 5 -65z m-435 3 c-12 -34 -16 -35 -28 -3 -6 16 -5 35 2 57 l12 33 12 -30 c8 -20 9 -37 2 -57z m69 -7 l-12 -32 -11 33 c-7 23 -8 40 0 61 l11 29 12 -30 c9 -23 9 -37 0 -61z m219 -3 l-13 -31 -12 35 c-9 27 -9 42 0 62 l13 27 12 -31 c11 -24 11 -36 0 -62z m-141 53 c3 -17 1 -40 -6 -52 -10 -20 -12 -21 -21 -5 -11 20 -2 86 12 86 4 0 11 -13 15 -29z m71 4 c3 -13 2 -37 -3 -52 l-10 -28 -12 23 c-13 24 -6 82 10 82 5 0 11 -11 15 -25z m-336 -143 l-13 -27 -9 28 c-7 20 -6 37 3 60 l13 32 10 -33 c6 -23 5 -40 -4 -60z m76 0 l-14 -27 -11 27 c-7 19 -7 37 1 60 l12 33 13 -33 c11 -28 11 -37 -1 -60z m221 -7 l-11 -30 -12 31 c-10 25 -11 38 -1 63 l12 32 11 -33 c8 -23 8 -42 1 -63z m223 5 l-12 -25 -14 27 c-11 20 -11 33 -2 58 l11 32 14 -33 c11 -26 12 -39 3 -59z m73 6 l-9 -31 -13 24 c-8 14 -10 36 -6 60 l7 36 15 -29 c11 -21 13 -37 6 -60z m-439 43 c3 -18 0 -41 -8 -57 l-14 -26 -6 31 c-7 32 1 83 14 83 4 0 10 -14 14 -31z m72 -44 c-4 -14 -10 -25 -15 -25 -15 0 -21 48 -10 77 l11 28 10 -28 c6 -15 7 -39 4 -52z m154 21 c0 -22 -16 -54 -23 -46 -19 22 -23 45 -13 72 10 26 12 27 23 11 7 -9 13 -26 13 -37z m66 -28 l-11 -29 -14 30 c-12 26 -12 35 -1 58 l13 28 12 -29 c9 -22 9 -36 1 -58z m118 -83 c-8 -31 -18 -32 -32 -1 -8 18 -8 33 1 56 l12 32 13 -31 c7 -18 9 -43 6 -56z m134 -75 c44 -85 103 -193 131 -240 28 -47 58 -98 67 -114 9 -17 47 -76 85 -134 67 -101 68 -103 42 -100 -22 2 -39 19 -76 73 -69 101 -204 329 -282 478 -58 112 -66 133 -60 164 3 19 8 33 10 32 2 -2 39 -74 83 -159z m-767 19 c-62 -131 -147 -283 -233 -419 -110 -172 -124 -190 -154 -190 -24 0 -24 0 15 58 117 174 275 444 333 569 17 37 38 79 47 92 l15 24 8 -25 c7 -20 0 -44 -31 -109z m109 105 c7 -18 6 -33 -4 -52 l-14 -27 -11 28 c-8 19 -7 34 1 52 14 31 16 31 28 -1z m69 -55 l-12 -31 -12 29 c-10 23 -9 34 3 58 l15 30 10 -28 c6 -19 5 -37 -4 -58z m78 4 c-6 -13 -14 -23 -18 -23 -14 0 -19 49 -8 77 l11 28 13 -30 c9 -21 10 -35 2 -52z m149 -5 c-5 -15 -13 -25 -17 -22 -14 8 -19 54 -8 81 l11 28 12 -30 c9 -21 10 -38 2 -57z m73 0 l-12 -30 -12 28 c-8 21 -8 37 -1 56 l10 28 14 -26 c11 -21 11 -32 1 -56z m75 2 l-6 -35 -16 32 c-13 27 -13 37 -3 60 l13 28 10 -25 c5 -14 6 -41 2 -60z m-220 46 c3 -14 1 -37 -5 -53 l-11 -28 -12 30 c-9 21 -10 37 -3 53 13 29 23 28 31 -2z m-315 -216 c-31 -63 -80 -153 -108 -199 -28 -46 -51 -86 -51 -88 0 -15 -123 -183 -134 -183 -8 0 -23 -3 -33 -7 -17 -6 -17 -5 -2 13 40 48 204 324 280 470 80 153 85 160 95 135 10 -23 4 -39 -47 -141z m197 82 l-14 -27 -11 27 c-7 18 -6 35 2 57 l11 30 13 -30 c11 -25 10 -35 -1 -57z m649 -303 c38 -63 91 -147 118 -188 l49 -74 -28 7 c-16 4 -34 13 -41 19 -32 32 -219 349 -296 501 -29 59 -33 73 -24 97 11 27 13 23 83 -110 39 -76 102 -190 139 -252z m-720 352 c8 -36 -12 -82 -26 -60 -16 25 -8 89 11 89 5 0 11 -13 15 -29z m151 -6 c8 -42 -13 -78 -29 -50 -10 19 0 85 13 85 5 0 12 -16 16 -35z m72 -46 l-12 -34 -13 32 c-10 25 -10 38 -1 58 l12 26 13 -24 c10 -20 10 -32 1 -58z m152 2 l-12 -26 -14 27 c-11 22 -12 32 -2 53 l12 26 14 -27 c11 -21 12 -32 2 -53z m74 54 c15 -22 15 -28 3 -52 l-14 -27 -12 23 c-10 18 -7 81 4 81 1 0 10 -11 19 -25z m-147 -7 c10 -23 -1 -68 -17 -68 -12 0 -22 49 -15 71 8 25 20 24 32 -3z m-267 -122 c-4 -11 -12 -22 -17 -23 -17 -6 -24 43 -11 72 l12 26 11 -28 c7 -15 9 -37 5 -47z m390 18 c0 -5 -6 -19 -14 -30 -14 -18 -15 -18 -24 6 -6 16 -6 35 1 54 l10 29 13 -24 c7 -13 13 -29 14 -35z m-466 20 c5 -19 -5 -47 -40 -112 -67 -127 -212 -368 -229 -382 -7 -6 -23 -10 -35 -8 -19 3 -19 6 13 53 68 100 199 328 246 428 26 53 36 58 45 21z m153 4 c10 -23 -1 -68 -18 -68 -13 0 -20 36 -13 64 8 32 18 33 31 4z m83 -22 c-1 -6 -6 -21 -13 -34 l-13 -23 -12 25 c-9 20 -9 32 0 52 11 24 13 25 25 8 7 -10 13 -23 13 -28z m68 -28 c-6 -15 -14 -26 -18 -23 -15 9 -20 56 -9 77 l12 21 12 -23 c9 -17 10 -32 3 -52z m82 32 c0 -25 -10 -50 -20 -50 -14 0 -21 36 -14 64 5 21 9 24 20 15 8 -6 14 -20 14 -29z m205 -92 c39 -73 104 -187 145 -253 42 -66 79 -126 83 -132 6 -9 0 -13 -20 -13 -20 0 -33 8 -44 28 -9 15 -48 79 -86 142 -119 196 -176 308 -169 336 4 13 10 24 14 24 4 0 39 -60 77 -132z m-589 -75 c-87 -158 -178 -304 -191 -309 -8 -3 -21 -4 -29 -2 -12 2 -6 18 26 68 60 94 111 182 165 287 l47 92 13 -29 c11 -27 8 -36 -31 -107z m538 23 c32 -60 86 -154 120 -210 34 -56 66 -107 70 -113 5 -9 -1 -13 -21 -13 -25 0 -35 12 -95 113 -37 61 -87 150 -112 196 -38 73 -43 88 -34 113 6 16 11 28 13 26 1 -2 28 -52 59 -112z m-429 37 c-3 -13 -10 -23 -15 -23 -16 0 -22 47 -9 71 l12 23 9 -24 c5 -14 6 -35 3 -47z m154 -10 l-11 -28 -14 27 c-11 22 -12 32 -2 53 l12 26 13 -25 c10 -19 10 -32 2 -53z m79 49 c7 -20 6 -35 -3 -53 l-13 -24 -12 30 c-8 21 -8 36 -1 52 14 30 17 29 29 -5z m82 -18 c0 -20 -11 -44 -20 -44 -14 0 -21 36 -14 66 7 26 8 26 20 9 8 -11 14 -24 14 -31z m-235 16 c7 -22 -2 -60 -14 -60 -15 0 -29 46 -19 63 12 23 25 21 33 -3z m-115 -94 c0 -19 -10 -39 -97 -186 -61 -105 -76 -122 -100 -118 -19 3 -14 16 64 148 47 80 88 152 91 160 11 31 25 42 33 28 5 -7 9 -22 9 -32z m80 -4 c0 -7 -5 -23 -12 -35 -11 -22 -12 -22 -24 8 -8 21 -9 35 -1 53 10 22 12 23 24 6 7 -10 13 -24 13 -32z m68 -27 l-12 -26 -13 25 c-10 20 -11 30 -1 51 l12 26 13 -25 c10 -20 11 -30 1 -51z m80 0 l-12 -26 -13 25 c-10 20 -11 30 -1 51 l12 26 13 -25 c10 -20 11 -30 1 -51z m81 3 c-5 -10 -14 -18 -19 -18 -16 0 -22 47 -9 72 l12 23 13 -30 c8 -20 9 -36 3 -47z m109 -15 c23 -43 60 -107 81 -143 77 -126 75 -120 47 -120 -28 0 -51 31 -145 199 -38 68 -51 100 -47 117 4 13 10 24 14 24 5 0 27 -35 50 -77z m-378 -35 c0 -10 -110 -207 -118 -212 -4 -2 -19 -6 -34 -10 l-28 -6 35 57 c19 32 54 93 78 135 37 68 44 76 55 61 6 -9 12 -20 12 -25z m80 -1 c0 -4 -5 -18 -11 -29 l-11 -21 -13 23 c-10 18 -10 30 -2 48 10 22 12 23 24 6 7 -10 13 -22 13 -27z m70 -27 c-13 -25 -17 -25 -30 -1 -7 14 -7 27 2 46 l12 26 13 -25 c10 -19 11 -31 3 -46z m77 -3 l-10 -30 -14 28 c-12 22 -13 33 -3 54 l12 26 13 -24 c9 -18 10 -32 2 -54z m191 -145 l32 -52 -28 6 c-33 8 -48 26 -107 130 -48 85 -52 103 -33 122 9 9 22 -7 58 -71 26 -45 61 -106 78 -135z m-310 73 l-12 -26 -13 25 c-10 20 -11 30 -1 51 l12 26 13 -25 c10 -20 11 -30 1 -51z m80 0 l-12 -26 -13 25 c-10 20 -11 30 -1 51 l12 26 13 -25 c10 -20 11 -30 1 -51z m-158 45 c9 -17 4 -33 -27 -90 -33 -61 -42 -70 -66 -70 l-29 0 22 38 c12 20 36 61 52 90 17 28 32 52 34 52 2 0 8 -9 14 -20z m261 -37 c17 -32 41 -73 51 -90 l20 -33 -26 0 c-20 0 -33 13 -66 69 -35 58 -40 73 -30 90 6 12 12 21 15 21 2 0 18 -26 36 -57z m-211 -57 c0 -24 -46 -68 -67 -64 -21 3 -21 4 10 56 29 47 33 50 45 35 6 -9 12 -22 12 -27z m66 -27 l-14 -21 -12 22 c-9 18 -9 28 1 47 l13 24 13 -26 c12 -22 12 -29 -1 -46z m103 14 l30 -53 -27 0 c-39 0 -70 51 -51 86 7 13 13 23 15 21 1 -1 16 -26 33 -54z m-140 -35 c12 -16 11 -18 -13 -18 -24 0 -26 2 -16 21 7 11 13 19 14 17 1 -1 8 -11 15 -20z m75 -16 c-21 -5 -28 4 -20 24 6 16 8 15 21 -2 12 -16 12 -19 -1 -22z m-339 -56 c-16 -24 -66 -38 -65 -18 1 17 28 40 50 44 33 5 34 4 15 -26z m93 12 c-13 -20 -68 -39 -68 -24 0 22 28 46 54 46 27 0 28 -1 14 -22z m80 -3 c-8 -18 -19 -25 -39 -25 -27 0 -28 2 -17 25 8 18 19 25 39 25 27 0 28 -2 17 -25z m80 3 c-9 -13 -27 -24 -42 -26 -27 -3 -27 -3 -11 22 11 17 26 26 42 26 24 0 25 -1 11 -22z m130 -3 c11 -23 10 -25 -17 -25 -20 0 -31 7 -39 25 -11 23 -10 25 17 25 20 0 31 -7 39 -25z m80 -2 c14 -22 13 -23 -11 -23 -16 0 -31 9 -42 26 -16 25 -16 25 11 22 15 -2 33 -13 42 -25z m78 10 c19 -26 17 -33 -10 -33 -14 0 -30 10 -40 25 -16 25 -16 25 10 25 15 0 33 -8 40 -17z m93 -19 c10 -22 8 -24 -13 -24 -14 0 -30 10 -40 25 -21 32 -21 32 13 27 18 -2 33 -13 40 -28z m-715 1 c-9 -14 -19 -25 -23 -25 -3 0 -16 -3 -29 -6 -21 -6 -22 -5 -11 19 11 25 25 33 62 36 16 1 16 -1 1 -24z m385 3 c12 -16 11 -18 -13 -18 -24 0 -26 2 -16 21 7 11 13 19 14 17 1 -1 8 -11 15 -20z m411 -3 c13 -14 21 -27 18 -30 -11 -12 -53 7 -71 31 -18 24 -18 24 6 24 13 0 34 -11 47 -25z m-880 8 c-1 -18 -28 -42 -53 -48 -32 -8 -34 3 -7 33 20 21 60 31 60 15z m967 -15 c31 -29 29 -42 -4 -34 -27 7 -53 31 -53 48 0 16 34 8 57 -14z m-1057 4 c0 -16 -41 -52 -60 -52 -23 0 -25 8 -7 31 18 24 67 39 67 21z m1145 -5 c0 -1 9 -12 19 -24 19 -23 19 -23 -7 -23 -25 0 -67 33 -67 53 0 7 55 1 55 -6z m-1250 -31 c-9 -13 -29 -26 -45 -28 -35 -5 -35 -4 -12 27 11 16 27 24 45 25 27 0 27 -1 12 -24z m1359 -4 c14 -28 14 -28 -12 -24 -15 2 -35 15 -45 28 l-18 24 30 0 c23 0 34 -7 45 -28z m-1444 11 c-1 -19 -37 -51 -62 -55 l-27 -5 16 28 c15 24 25 30 66 38 4 0 7 -2 7 -6z m1528 -16 c7 -6 17 -18 22 -27 8 -14 5 -16 -18 -12 -25 4 -61 37 -62 55 0 10 40 -1 58 -16z m-1028 6 c-1 -17 -27 -40 -52 -47 -32 -7 -34 -4 -12 29 15 23 64 36 64 18z m73 -18 c-12 -15 -28 -24 -46 -25 -27 0 -27 0 -11 25 11 17 25 25 46 25 l29 0 -18 -25z m85 3 c-13 -20 -68 -39 -68 -24 0 22 28 46 54 46 27 0 28 -1 14 -22z m126 -3 l16 -25 -65 0 c-67 0 -70 2 -42 38 17 22 73 15 91 -13z m82 8 c20 -27 17 -35 -12 -31 -15 2 -33 13 -42 26 -14 21 -13 22 13 22 15 0 34 -8 41 -17z m88 -8 c16 -25 16 -25 -13 -25 -20 0 -34 8 -45 25 -16 25 -16 25 13 25 20 0 34 -8 45 -25z m87 -6 l22 -31 -34 7 c-52 12 -79 55 -35 55 16 0 32 -11 47 -31z m-1152 -8 c-14 -19 -33 -31 -58 -35 -118 -19 -458 -129 -610 -197 -294 -133 -504 -272 -666 -440 -100 -104 -157 -184 -195 -274 -21 -51 -25 -76 -25 -160 0 -110 8 -134 67 -194 99 -101 309 -127 554 -67 357 87 785 363 1139 732 74 77 95 94 120 94 l29 0 -39 -41 c-392 -411 -759 -666 -1131 -788 -336 -110 -579 -90 -718 59 -71 76 -91 169 -61 285 33 127 105 244 230 374 201 210 469 377 827 517 155 61 469 154 551 163 4 1 -2 -12 -14 -28z m509 7 c-9 -13 -27 -24 -42 -26 -27 -3 -27 -3 -11 22 11 17 26 26 42 26 24 0 25 -1 11 -22z m727 0 c15 -22 14 -23 -11 -26 -23 -3 -53 19 -54 41 0 17 50 5 65 -15z m570 -8 c277 -70 467 -140 697 -256 387 -195 685 -474 770 -723 31 -91 31 -199 0 -262 -96 -196 -379 -252 -724 -143 -395 124 -782 388 -1157 787 -53 56 -54 57 -26 57 23 0 57 -28 179 -148 157 -155 217 -207 351 -308 509 -383 1068 -515 1284 -302 51 49 71 101 71 184 0 100 -29 185 -99 291 -215 325 -709 614 -1313 767 -105 26 -130 36 -148 59 -12 15 -18 27 -13 27 4 0 62 -14 128 -30z m-1387 -5 c-8 -18 -19 -25 -40 -25 -28 0 -28 0 -12 25 10 15 26 25 40 25 22 0 23 -2 12 -25z m907 3 c15 -22 14 -23 -6 -26 -20 -4 -59 23 -59 40 0 18 50 7 65 -14z m-997 -10 c-9 -13 -29 -25 -45 -29 l-30 -6 16 28 c12 21 24 29 45 29 27 0 28 -1 14 -22z m1084 5 c30 -35 29 -41 -4 -34 -17 4 -37 16 -46 29 -14 21 -13 22 10 22 14 0 32 -8 40 -17z m-1174 -15 c-16 -23 -65 -45 -76 -33 -11 10 46 55 70 55 19 0 19 -2 6 -22z m1269 -4 c14 -14 23 -27 20 -30 -11 -11 -57 10 -72 32 -15 23 -14 24 5 24 12 0 32 -12 47 -26z m-1369 -14 c-12 -16 -27 -30 -34 -30 -7 0 -20 -3 -30 -7 -16 -6 -16 -4 1 25 13 22 28 32 49 35 17 2 32 5 34 5 1 1 -7 -11 -20 -28z m1470 -7 c27 -30 26 -33 -11 -26 -15 3 -37 19 -48 35 l-21 29 29 -7 c15 -3 38 -17 51 -31z m-1570 -13 c-12 -16 -27 -30 -34 -30 -7 0 -20 -3 -30 -7 -15 -6 -15 -2 4 24 19 27 31 34 75 42 4 0 -2 -12 -15 -29z m510 0 c-20 -28 -68 -43 -68 -22 0 15 34 40 60 45 14 2 26 5 28 6 1 0 -7 -12 -20 -29z m102 22 c0 -17 -39 -44 -59 -40 -20 3 -21 4 -6 26 15 21 65 32 65 14z m80 1 c-1 -20 -30 -43 -54 -43 -26 0 -26 0 -10 25 15 23 64 37 64 18z m206 -10 c7 -10 14 -21 14 -25 0 -5 -50 -8 -110 -8 l-111 0 18 25 c16 22 25 24 97 25 64 0 81 -3 92 -17z m88 -8 c16 -25 16 -25 -13 -25 -27 0 -51 21 -51 44 0 18 50 3 64 -19z m82 8 c20 -27 17 -35 -12 -31 -15 2 -33 13 -42 26 -14 21 -13 22 13 22 15 0 34 -8 41 -17z m91 -12 c18 -24 16 -31 -11 -31 -16 0 -32 10 -45 28 l-20 28 32 -4 c18 -3 37 -12 44 -21z m511 -8 c27 -30 26 -33 -11 -26 -15 3 -37 19 -48 35 l-21 29 29 -7 c15 -3 38 -17 51 -31z m-1238 20 c-1 -18 -28 -42 -53 -48 -29 -8 -34 1 -14 26 18 23 67 39 67 22z m812 -23 l33 -29 -26 -1 c-26 0 -45 12 -68 43 -24 30 24 21 61 -13z m-1343 -9 c-17 -23 -38 -33 -107 -51 -649 -168 -1174 -506 -1303 -837 -42 -109 -26 -238 38 -295 46 -42 132 -70 231 -75 346 -18 825 231 1268 660 92 88 130 119 155 123 33 6 32 4 -46 -76 -402 -411 -866 -686 -1249 -740 -212 -30 -380 29 -441 154 -24 49 -27 65 -23 123 25 377 620 813 1378 1012 63 16 116 30 118 31 1 0 -7 -13 -19 -29z m431 9 c-12 -22 -41 -40 -65 -40 -14 0 -14 2 1 24 14 23 30 32 62 35 10 1 10 -4 2 -19z m977 14 c12 -3 29 -17 38 -30 15 -23 15 -24 -9 -24 -24 0 -66 34 -66 52 0 9 7 10 37 2z m652 -69 c608 -182 1109 -544 1211 -873 48 -154 5 -269 -124 -332 -81 -40 -161 -54 -266 -46 -383 28 -879 312 -1300 741 -83 85 -84 87 -50 80 26 -5 60 -31 130 -99 331 -322 633 -523 939 -625 411 -138 697 -28 641 247 -50 245 -369 529 -815 727 -145 63 -342 133 -487 170 -87 22 -110 33 -126 55 l-20 27 71 -17 c40 -10 128 -34 196 -55z m-1709 58 c0 -17 -46 -53 -67 -53 -23 0 -23 1 -7 24 13 22 24 27 67 35 4 0 7 -2 7 -6z m1188 -31 c14 -21 13 -22 -15 -22 -21 0 -33 8 -46 29 l-17 28 32 -6 c17 -4 37 -16 46 -29z m-1300 -4 c-14 -22 -64 -45 -74 -35 -11 11 41 57 64 57 23 0 24 -1 10 -22z m1389 -4 c14 -14 23 -27 20 -30 -11 -11 -57 10 -72 32 -15 23 -14 24 5 24 12 0 32 -12 47 -26z m-1487 -11 c-19 -24 -68 -49 -77 -39 -9 9 41 55 65 59 15 2 28 5 30 6 2 0 -6 -11 -18 -26z m1591 -9 c12 -13 20 -26 17 -29 -12 -12 -59 9 -77 34 l-20 27 29 -4 c16 -2 39 -15 51 -28z m-1083 1 c-9 -21 -62 -45 -73 -33 -9 9 47 58 65 58 17 0 18 -3 8 -25z m90 3 c-13 -20 -68 -39 -68 -24 0 22 28 46 54 46 27 0 28 -1 14 -22z m310 -5 l14 -23 -156 0 c-162 0 -162 0 -133 38 7 9 42 12 135 10 117 -3 126 -4 140 -25z m82 8 c14 -28 13 -31 -14 -31 -14 0 -30 10 -40 25 -16 25 -16 25 13 25 20 0 34 -7 41 -19z m86 -8 c23 -24 24 -28 9 -31 -19 -4 -66 26 -73 46 -7 23 39 12 64 -15z m-1177 -12 c-19 -26 -64 -49 -75 -38 -10 9 31 48 59 56 18 5 33 10 35 10 1 1 -7 -12 -19 -28z m519 7 c-16 -23 -84 -46 -71 -24 16 29 38 46 61 46 23 0 24 -1 10 -22z m744 5 c25 -23 22 -35 -8 -31 -15 2 -33 13 -42 26 -14 21 -13 22 8 22 13 0 32 -7 42 -17z m532 -23 c11 -11 17 -22 14 -25 -12 -12 -54 8 -76 35 l-22 29 32 -10 c18 -5 41 -18 52 -29z m-1366 8 c-10 -14 -28 -24 -47 -26 l-32 -3 16 25 c12 18 26 26 47 26 29 0 30 -1 16 -22z m935 -3 l18 -25 -29 0 c-21 0 -35 8 -46 25 -16 25 -16 25 11 25 18 -1 34 -10 46 -25z m-1033 -9 c-14 -13 -38 -27 -53 -30 l-28 -7 22 31 c17 22 31 30 53 30 l31 0 -25 -24z m1105 16 c6 -4 19 -18 30 -31 l20 -23 -35 7 c-32 7 -59 29 -60 48 0 9 32 9 45 -1z m-1542 -27 c-18 -24 -43 -34 -208 -81 -107 -30 -331 -121 -467 -191 -328 -166 -562 -380 -614 -561 -83 -283 225 -370 655 -185 240 103 514 295 761 534 55 53 85 74 111 79 34 6 31 3 -70 -95 -172 -166 -314 -280 -476 -383 -253 -160 -496 -254 -695 -268 -258 -19 -402 130 -321 333 122 308 579 619 1176 800 168 50 172 51 148 18z m351 13 c-17 -31 -39 -48 -61 -48 -27 0 -30 11 -5 32 30 27 79 38 66 16z m1310 -22 c18 -21 18 -21 -3 -24 -24 -4 -46 11 -62 40 -9 17 -7 18 18 12 15 -3 36 -16 47 -28z m366 9 c156 -39 419 -139 581 -221 235 -118 469 -300 578 -449 183 -251 117 -456 -155 -482 -263 -25 -728 186 -1079 491 -108 93 -188 168 -229 214 -37 41 -38 42 -14 42 13 0 40 -14 59 -32 19 -18 72 -68 117 -110 188 -177 394 -323 602 -427 198 -98 345 -140 491 -141 212 0 307 107 254 286 -75 253 -494 553 -1008 723 -100 32 -198 62 -218 66 -24 4 -44 17 -59 37 -20 27 -20 29 -4 25 11 -3 48 -13 84 -22z m-1785 -19 c-16 -24 -61 -43 -74 -31 -9 10 48 55 70 55 18 0 19 -1 4 -24z m1517 -6 c18 -17 25 -30 17 -30 -32 0 -59 14 -74 36 -15 23 -14 24 5 24 11 0 34 -13 52 -30z m-1004 -2 c-13 -20 -68 -39 -68 -24 0 22 28 46 54 46 27 0 28 -1 14 -22z m406 -3 l16 -25 -205 0 c-212 0 -211 0 -182 38 7 9 56 12 182 12 l173 0 16 -25z m87 -1 l24 -26 -34 4 c-21 2 -39 11 -49 26 -14 21 -13 22 10 22 13 0 35 -12 49 -26z m-1108 -8 c-17 -23 -68 -44 -79 -33 -9 8 57 57 77 57 19 0 19 -1 2 -24z m441 12 c-17 -31 -39 -48 -61 -48 -54 0 -3 50 60 59 5 0 5 -5 1 -11z m79 -13 c-12 -15 -28 -24 -46 -25 -27 0 -27 0 -11 25 11 17 25 25 46 25 l29 0 -18 -25z m680 0 l18 -25 -29 0 c-21 0 -35 8 -46 25 -16 25 -16 25 11 25 18 -1 34 -10 46 -25z m79 8 c5 -2 13 -13 18 -24 9 -16 7 -19 -14 -19 -16 0 -32 11 -46 30 l-22 31 29 -7 c15 -4 31 -9 35 -11z m438 -9 c17 -15 29 -29 26 -31 -11 -11 -62 10 -79 33 -17 23 -17 24 2 24 11 0 34 -12 51 -26z m-1382 -14 c-15 -21 -30 -30 -50 -30 -28 0 -28 1 -12 24 8 14 28 27 42 29 15 2 31 5 35 6 4 0 -2 -12 -15 -29z m1053 -4 c17 -20 17 -21 -9 -24 -18 -3 -31 3 -44 20 -9 12 -18 26 -18 31 0 14 54 -6 71 -27z m-1496 -5 c-17 -16 -43 -32 -59 -35 l-28 -7 23 30 c22 27 40 36 79 40 9 0 3 -11 -15 -28z m1940 -13 l30 -29 -30 7 c-31 7 -75 40 -75 56 0 17 44 -4 75 -34z m-1594 8 c-23 -24 -86 -43 -74 -22 17 31 39 46 66 46 l30 0 -22 -24z m1248 -5 l20 -28 -27 5 c-28 5 -62 29 -62 44 0 21 50 6 69 -21z m-1699 -14 c-27 -26 -59 -41 -145 -66 -350 -104 -678 -281 -861 -465 -113 -114 -154 -189 -154 -282 0 -52 4 -67 25 -93 42 -50 98 -64 222 -59 84 4 128 12 199 36 242 81 549 278 799 514 59 55 89 76 114 80 l34 5 -64 -61 c-346 -329 -691 -536 -1000 -601 -230 -49 -396 35 -376 188 21 153 212 362 482 526 111 68 319 165 457 215 103 37 276 92 298 95 2 1 -11 -14 -30 -32z m354 11 c-27 -32 -36 -38 -63 -38 -24 0 -24 0 -5 21 20 22 49 37 73 38 11 1 9 -5 -5 -21z m1447 -12 c10 -11 13 -23 8 -24 -21 -8 -57 9 -74 34 l-17 26 33 -7 c18 -4 41 -17 50 -29z m441 -22 c240 -77 489 -195 669 -316 53 -35 140 -109 200 -168 86 -85 113 -120 143 -181 61 -124 58 -198 -9 -258 -208 -182 -796 58 -1300 532 -88 82 -89 84 -55 80 25 -4 51 -20 90 -57 251 -238 515 -418 749 -510 227 -89 430 -89 499 -1 34 43 31 134 -8 213 -109 218 -474 454 -940 608 -115 38 -173 63 -190 80 l-25 26 35 -7 c19 -4 83 -23 142 -41z m-1982 27 c0 -15 -51 -51 -72 -51 -17 0 -17 2 -2 24 14 23 30 32 62 35 6 0 12 -3 12 -8z m520 -11 c-13 -24 -41 -40 -71 -40 -22 0 -22 0 -3 21 19 22 49 37 72 38 10 1 10 -4 2 -19z m504 -5 l16 -25 -255 0 c-264 0 -262 0 -232 38 7 9 66 12 232 12 l223 0 16 -25z m90 -8 c16 -19 16 -22 3 -25 -22 -5 -54 14 -68 40 -10 19 -9 20 17 14 16 -4 37 -17 48 -29z m493 27 c12 -3 29 -17 38 -30 15 -23 14 -24 -5 -24 -11 0 -34 13 -52 30 -33 29 -28 36 19 24z m-1184 -28 c-18 -24 -88 -44 -76 -21 17 29 39 45 65 45 29 0 29 0 11 -24z m787 -6 l21 -30 -33 7 c-51 10 -78 53 -34 53 16 0 32 -11 46 -30z m-1329 -9 c-11 -16 -33 -31 -48 -34 -36 -7 -37 -5 -13 26 18 22 31 29 73 36 5 0 -1 -12 -12 -28z m447 7 c-13 -20 -78 -45 -78 -30 0 16 47 52 68 52 23 0 24 -1 10 -22z m981 -10 l24 -30 -34 7 c-42 9 -46 12 -59 36 -9 17 -7 19 17 18 19 0 36 -10 52 -31z m439 -4 c28 -30 28 -32 -5 -26 -23 4 -73 44 -73 59 0 11 59 -13 78 -33z m-1508 18 c0 -15 -34 -40 -64 -48 -26 -6 -27 -5 -17 14 6 12 19 26 29 31 21 13 52 14 52 3z m1127 2 c12 -3 29 -17 38 -30 15 -23 14 -24 -5 -24 -11 0 -34 13 -52 30 -33 29 -28 36 19 24z m-1239 -33 c-14 -18 -35 -30 -55 -33 l-31 -4 21 27 c12 15 33 29 47 32 14 2 29 5 33 6 5 0 -2 -12 -15 -28z m1377 -10 l26 -28 -35 6 c-20 4 -43 17 -54 32 l-21 25 29 -4 c15 -2 40 -16 55 -31z m-1732 5 c-10 -13 -32 -28 -50 -34 l-32 -10 16 25 c16 24 44 41 71 42 9 1 8 -6 -5 -23z m2075 2 c7 -6 17 -19 22 -28 16 -29 -34 -12 -67 22 l-28 31 30 -7 c16 -4 36 -13 43 -18z m-1808 7 c0 -15 -48 -53 -72 -57 -34 -6 -34 -4 -5 27 23 24 77 45 77 30z m1570 -31 l25 -24 -31 0 c-28 0 -49 15 -68 48 -13 22 46 3 74 -24z m-1949 -8 c-18 -19 -46 -37 -62 -40 -58 -11 -306 -109 -425 -167 -321 -156 -534 -355 -534 -500 0 -163 268 -155 590 18 150 81 345 222 485 352 57 52 86 71 112 71 20 0 15 -8 -34 -54 -32 -29 -74 -66 -93 -82 -19 -16 -37 -31 -40 -34 -14 -16 -176 -134 -251 -183 -344 -225 -673 -301 -779 -180 -41 46 -41 99 2 183 89 180 386 396 733 535 58 23 309 112 324 114 3 1 -10 -14 -28 -33z m1417 7 l20 -28 -309 3 c-170 1 -309 5 -309 9 0 4 7 15 17 25 15 17 37 18 289 18 l273 0 19 -27z m982 -33 c92 -31 238 -93 354 -152 313 -157 556 -395 556 -544 0 -132 -178 -172 -415 -93 -227 75 -476 229 -725 448 -87 77 -102 92 -95 99 11 11 57 -12 96 -49 78 -73 282 -233 364 -285 295 -188 546 -264 678 -203 96 44 65 187 -70 323 -158 159 -421 304 -753 417 -94 31 -131 49 -147 69 l-23 28 58 -18 c31 -10 86 -28 122 -40z m-2145 21 c-17 -16 -43 -32 -59 -35 l-28 -7 23 30 c21 25 35 32 84 40 5 0 -4 -12 -20 -28z m445 -1 c-16 -22 -29 -30 -52 -30 l-31 0 22 24 c13 14 35 27 50 29 14 2 27 5 29 6 2 0 -6 -12 -18 -29z m93 5 c-12 -16 -28 -24 -46 -25 -28 0 -28 0 -10 25 12 16 28 24 46 25 28 0 28 0 10 -25z m722 -1 l16 -25 -32 3 c-19 2 -37 12 -47 26 -14 21 -13 22 16 22 21 0 35 -8 47 -26z m96 -10 l22 -24 -30 0 c-27 0 -49 15 -66 46 -12 21 51 2 74 -22z m444 -6 l30 -29 -30 7 c-16 3 -43 20 -60 36 l-30 29 30 -7 c17 -3 44 -20 60 -36z m-1450 2 c-26 -28 -75 -42 -75 -22 0 16 35 40 65 45 17 2 32 5 34 6 3 0 -8 -12 -24 -29z m1103 -7 c14 -22 13 -23 -14 -22 -19 0 -36 9 -51 28 l-22 28 36 -6 c21 -4 42 -15 51 -28z m-1563 -6 c-14 -22 -85 -54 -85 -38 0 8 40 44 60 53 32 14 41 9 25 -15z m358 -1 c-15 -20 -70 -41 -81 -31 -10 8 52 55 73 55 26 0 26 0 8 -24z m1282 16 c6 -4 19 -17 30 -30 l19 -23 -29 6 c-17 4 -41 18 -55 31 l-25 24 25 0 c14 0 30 -4 35 -8z m349 -2 c14 -5 30 -19 36 -31 11 -20 11 -21 -16 -15 -38 10 -83 56 -55 56 5 0 21 -4 35 -10z m-1733 -29 c-15 -20 -31 -30 -56 -33 l-35 -4 26 27 c23 24 37 31 77 38 5 0 -1 -12 -12 -28z m1513 -10 l26 -28 -32 5 c-36 5 -54 16 -68 42 -15 28 44 12 74 -19z m-1886 -6 c-35 -33 -68 -46 -68 -27 0 18 64 57 100 61 3 0 -12 -15 -32 -34z m2254 -13 c15 -14 26 -27 24 -29 -8 -9 -72 26 -95 51 l-25 26 35 -11 c19 -7 46 -23 61 -37z m-1988 9 c-22 -26 -84 -48 -84 -31 0 14 46 48 70 53 14 2 28 5 33 6 4 0 -4 -12 -19 -28z m1181 -1 l25 -25 -375 0 -374 0 21 22 c11 12 30 24 42 26 11 3 159 4 328 3 l308 -1 25 -25z m551 -11 l28 -29 -34 6 c-38 7 -57 19 -70 44 -15 28 44 12 76 -21z m-1286 7 c-14 -13 -41 -27 -60 -31 l-35 -7 29 31 c21 21 39 31 60 31 l31 0 -25 -24z m832 -7 l33 -30 -35 7 c-54 10 -95 54 -50 54 11 0 34 -14 52 -31z m-1386 -8 c-26 -28 -72 -48 -83 -37 -15 15 48 53 106 65 3 1 -8 -12 -23 -28z m454 5 c-14 -13 -38 -27 -53 -30 -26 -6 -27 -5 -17 13 13 26 38 40 70 41 l25 0 -25 -24z m1032 -7 l33 -30 -35 6 c-19 4 -46 18 -60 31 l-25 24 28 0 c16 0 40 -12 59 -31z m434 11 c1 0 14 -12 30 -27 l29 -26 -35 7 c-19 3 -48 20 -65 36 l-30 30 35 -10 c19 -6 35 -10 36 -10z m-2191 -18 c-19 -19 -73 -44 -150 -71 -318 -112 -595 -286 -687 -430 -37 -59 -40 -132 -6 -155 36 -26 160 -21 252 9 175 57 405 200 614 382 40 35 79 63 87 63 7 0 22 3 32 6 30 10 -98 -104 -222 -196 -263 -196 -512 -312 -675 -314 -166 -2 -203 88 -96 231 128 170 416 345 781 474 101 35 106 35 70 1z m617 -2 c-18 -17 -41 -30 -53 -30 -19 0 -19 1 -2 24 17 23 35 32 73 34 9 1 1 -11 -18 -28z m1242 -1 c11 -10 17 -21 14 -25 -13 -12 -64 8 -82 33 l-19 25 34 -7 c19 -4 43 -15 53 -26z m642 -3 c287 -97 602 -277 726 -414 83 -92 118 -173 98 -223 -19 -46 -62 -64 -150 -63 -207 3 -568 200 -875 478 l-40 37 30 -7 c37 -8 39 -9 172 -119 195 -161 424 -296 575 -339 74 -21 196 -21 226 0 29 20 30 89 3 142 -24 47 -126 145 -211 205 -125 87 -384 210 -552 263 -33 10 -69 30 -85 46 -15 15 -25 28 -22 28 3 0 50 -15 105 -34z m-2351 -15 c-17 -17 -43 -33 -60 -37 l-30 -7 24 27 c20 21 54 38 91 45 2 1 -9 -12 -25 -28z m368 5 c-11 -15 -31 -26 -50 -28 -18 -2 -33 -2 -33 -1 0 14 57 53 77 53 24 0 24 0 6 -24z m1427 14 c11 -6 24 -19 29 -28 9 -16 6 -18 -19 -14 -16 2 -39 15 -51 28 l-22 24 22 0 c12 0 31 -5 41 -10z m394 -40 l30 -29 -37 11 c-20 6 -48 24 -63 39 l-27 29 34 -10 c18 -6 47 -23 63 -40z m-1928 11 c-15 -16 -41 -31 -57 -33 -28 -4 -29 -4 -12 16 10 12 19 23 20 25 2 3 17 7 72 20 3 1 -8 -12 -23 -28z m1661 -9 c13 -14 23 -26 23 -27 0 -1 -13 0 -29 3 -16 2 -41 16 -55 31 l-26 28 32 -5 c17 -3 42 -16 55 -30z m-452 -2 l25 -25 -430 0 c-237 0 -430 3 -430 6 0 17 40 38 80 42 25 2 199 4 387 3 l343 -1 25 -25z m-1584 -10 c-19 -16 -48 -34 -65 -40 l-30 -10 28 29 c22 23 66 46 96 50 3 0 -10 -13 -29 -29z m724 0 c-26 -28 -75 -42 -75 -22 0 16 35 40 65 45 17 2 32 5 34 6 3 0 -8 -12 -24 -29z m1425 -16 l25 -26 -30 6 c-16 4 -43 20 -60 37 l-30 29 35 -10 c19 -5 46 -22 60 -36z m-1890 12 c-14 -13 -38 -26 -55 -30 l-30 -6 33 30 c18 16 42 30 54 30 23 0 23 0 -2 -24z m1422 7 c24 -22 23 -33 -5 -33 -13 0 -34 11 -47 25 l-23 25 28 0 c16 0 37 -7 47 -17z m109 -19 l22 -24 -29 0 c-20 0 -39 10 -57 28 l-27 28 34 -4 c19 -2 44 -15 57 -28z m624 -5 l30 -30 -39 14 c-22 7 -46 24 -55 37 -15 22 -14 22 9 15 14 -4 39 -20 55 -36z m-1795 6 c-15 -16 -34 -25 -53 -25 l-30 0 23 25 c15 16 34 25 53 25 l30 0 -23 -25z m-471 -10 c-13 -14 -40 -30 -58 -35 l-34 -10 28 30 c24 25 40 33 80 39 5 0 -2 -10 -16 -24z m371 1 c-14 -13 -41 -27 -60 -31 l-35 -6 33 30 c19 19 43 31 59 31 l28 0 -25 -24z m1372 -7 l33 -30 -35 6 c-19 4 -46 18 -60 31 l-25 24 28 0 c16 0 40 -12 59 -31z m371 -9 l28 -27 -29 5 c-17 2 -43 17 -59 34 l-28 30 30 -7 c17 -4 43 -20 58 -35z m-2388 1 c-19 -18 -76 -47 -150 -76 -329 -129 -565 -296 -565 -399 0 -45 16 -56 82 -56 133 0 332 102 581 297 90 70 167 116 167 97 0 -2 -46 -41 -102 -86 -259 -206 -518 -338 -665 -338 -96 0 -125 38 -87 113 70 135 309 296 636 427 68 27 125 49 128 50 2 0 -9 -13 -25 -29z m541 0 c-17 -18 -41 -31 -62 -33 l-34 -4 26 27 c15 16 41 30 58 32 17 2 33 5 35 5 3 1 -8 -11 -23 -27z m1588 -10 l26 -27 -34 4 c-20 2 -45 15 -60 31 l-26 27 34 -4 c20 -2 45 -15 60 -31z m564 -7 c355 -133 662 -359 662 -487 0 -61 -106 -76 -236 -32 -154 52 -374 182 -549 325 -89 73 -96 82 -53 69 18 -5 33 -9 34 -9 1 0 37 -30 80 -66 226 -188 466 -314 602 -314 66 0 82 11 82 55 0 106 -266 289 -602 415 -48 19 -97 44 -110 57 -12 12 -18 23 -14 23 4 0 51 -16 104 -36z m-2543 -3 c-17 -16 -43 -32 -60 -36 l-30 -7 24 26 c20 22 54 38 91 45 2 1 -9 -12 -25 -28z m2092 -14 l24 -24 -33 5 c-18 3 -46 17 -62 33 l-28 27 38 -8 c20 -5 48 -19 61 -33z m273 -3 l25 -25 -30 7 c-16 3 -43 19 -60 35 l-30 29 35 -10 c19 -5 46 -21 60 -36z m-2094 12 c-16 -13 -43 -26 -59 -29 l-31 -4 32 28 c19 17 43 29 60 29 l27 -1 -29 -23z m-116 -21 c-14 -13 -41 -28 -60 -31 l-35 -7 30 25 c52 43 106 54 65 13z m2050 -12 l25 -25 -30 6 c-16 4 -41 18 -55 32 l-25 25 30 -7 c17 -3 41 -18 55 -31z m-2329 3 c-13 -14 -37 -30 -54 -35 l-30 -11 19 21 c16 18 66 47 83 49 3 0 -6 -11 -18 -24z m2604 -16 l26 -27 -24 4 c-14 3 -37 17 -52 33 l-26 27 24 -4 c14 -3 37 -17 52 -33z m-2445 -4 c-32 -30 -82 -44 -73 -20 6 17 56 43 83 44 10 0 7 -8 -10 -24z m2292 -8 c16 -11 27 -22 25 -24 -10 -11 -68 11 -89 34 l-23 25 29 -7 c17 -4 43 -17 58 -28z m-2572 -12 c-14 -14 -82 -49 -151 -78 -267 -114 -438 -240 -402 -296 38 -60 269 45 493 223 36 28 81 57 100 63 l35 12 -36 -33 c-166 -147 -464 -307 -572 -307 -160 0 0 177 294 326 77 39 239 110 259 113 2 1 -7 -10 -20 -23z m3005 -81 c247 -120 419 -267 375 -320 -42 -50 -240 21 -450 161 -95 64 -228 164 -218 164 25 0 84 -32 138 -75 224 -179 455 -283 494 -223 8 14 7 24 -5 45 -39 66 -250 195 -445 272 -45 18 -92 44 -105 58 l-24 25 45 -17 c25 -9 113 -50 195 -90z m-2854 69 c-17 -14 -44 -29 -62 -34 -28 -8 -29 -7 -17 7 12 15 84 52 101 53 5 0 -5 -12 -22 -26z m2548 -15 c17 -12 29 -24 27 -26 -6 -6 -69 24 -96 46 l-25 21 32 -9 c17 -5 45 -19 62 -32z m-2681 -29 c-14 -11 -38 -24 -54 -30 l-28 -11 19 22 c21 22 49 37 74 38 7 1 2 -8 -11 -19z m2812 -16 l25 -25 -32 11 c-17 6 -39 21 -50 32 -18 20 -18 21 7 13 14 -4 36 -18 50 -31z m-2955 -33 c-11 -11 -66 -40 -122 -64 -133 -59 -243 -130 -243 -157 0 -46 90 -12 235 88 44 30 89 62 100 71 11 10 33 23 49 30 51 21 14 -11 -92 -83 -155 -103 -295 -166 -329 -147 -20 11 22 59 102 116 50 36 296 165 315 165 2 0 -4 -9 -15 -19z m3198 -63 c157 -81 267 -172 240 -199 -24 -24 -215 67 -368 176 -46 32 -83 61 -81 62 7 8 78 -33 151 -87 97 -72 204 -130 239 -130 37 0 34 32 -6 62 -45 33 -168 99 -250 133 -37 15 -75 36 -84 47 -17 18 -17 18 22 2 21 -9 83 -39 137 -66z m-3346 -52 c-16 -13 -65 -42 -110 -65 -100 -52 -59 -15 52 46 86 48 98 52 58 19z m3500 -83 c28 -23 27 -23 -26 3 -55 26 -161 93 -161 101 0 8 159 -80 187 -104z"/> </g> </svg>