<?xml version="1.0" encoding="utf-8"?>
<svg version="1.1" id="Layer_1" xmlns="http://www.w3.org/2000/svg" xmlns:xlink="http://www.w3.org/1999/xlink" x="0px" y="0px"
	 viewBox="0 0 2358 1614.818" enable-background="new 0 0 2358 1614.818" xml:space="preserve">
<g>
	<polygon points="285.429,1217 32.614,1217 10.819,1175.59 32.614,1134.181 285.429,1134.181 307.223,1175.59 	"/>
	<polygon points="212.525,1090.445 113.276,1080.014 84.753,1060.58 116.693,1047.501 215.942,1057.933 244.464,1077.366 	"/>
	<polygon points="226.719,989.888 129.104,969.139 102.77,946.83 135.901,937.162 233.516,957.91 259.851,980.219 	"/>
	<polygon points="251.347,891.364 156.436,860.526 132.577,835.587 166.538,829.434 261.449,860.273 285.308,885.212 	"/>
	<polygon points="286.138,795.955 194.971,755.365 173.85,728.068 208.268,725.499 299.435,766.09 320.556,793.386 	"/>
	<polygon points="384.58,618.615 303.844,559.956 288.86,528.865 323.06,533.508 403.796,592.167 418.78,623.258 	"/>
	<polygon points="447.152,538.626 372.989,471.85 361.337,439.363 394.864,447.556 469.027,514.332 480.679,546.819 	"/>
	<polygon points="517.742,465.617 450.966,391.454 442.773,357.927 475.26,369.579 542.036,443.742 550.229,477.269 	"/>
	<polygon points="595.577,400.386 536.918,319.65 532.275,285.45 563.366,300.434 622.025,381.17 626.668,415.37 	"/>
	<polygon points="769.5,296.025 728.909,204.858 731.478,170.44 758.775,191.561 799.365,282.729 796.796,317.146 	"/>
	<polygon points="863.683,258.039 832.844,163.128 838.997,129.167 863.936,153.026 894.774,247.937 888.622,281.898 	"/>
	<polygon points="961.32,230.106 940.572,132.491 950.24,99.36 972.549,125.694 993.297,223.309 983.629,256.441 	"/>
	<polygon points="1061.343,212.532 1050.911,113.283 1063.99,81.343 1083.424,109.866 1093.855,209.115 1080.776,241.054 	"/>
	<polygon points="1264.145,209.115 1274.576,109.866 1294.01,81.343 1307.089,113.283 1296.657,212.532 1277.224,241.054 	"/>
	<polygon points="1364.703,223.309 1385.451,125.694 1407.76,99.36 1417.428,132.491 1396.68,230.106 1374.371,256.441 	"/>
	<polygon points="1463.226,247.937 1494.064,153.026 1519.003,129.167 1525.156,163.128 1494.317,258.039 1469.378,281.898 	"/>
	<polygon points="1558.635,282.729 1599.225,191.561 1626.522,170.44 1629.091,204.858 1588.5,296.025 1561.204,317.146 	"/>
	<polygon points="1735.975,381.17 1794.634,300.434 1825.725,285.45 1821.082,319.65 1762.423,400.386 1731.332,415.37 	"/>
	<polygon points="1815.964,443.742 1882.74,369.579 1915.227,357.927 1907.034,391.454 1840.258,465.617 1807.771,477.269 	"/>
	<polygon points="1888.973,514.332 1963.136,447.556 1996.663,439.363 1985.011,471.85 1910.848,538.626 1877.321,546.819 	"/>
	<polygon points="1954.204,592.167 2034.94,533.508 2069.14,528.865 2054.156,559.956 1973.42,618.615 1939.22,623.258 	"/>
	<polygon points="2058.565,766.09 2149.732,725.499 2184.15,728.068 2163.029,755.365 2071.862,795.955 2037.444,793.386 	"/>
	<polygon points="2096.551,860.273 2191.462,829.434 2225.423,835.587 2201.564,860.526 2106.653,891.364 2072.692,885.212 	"/>
	<polygon points="2124.484,957.91 2222.099,937.162 2255.23,946.83 2228.896,969.139 2131.281,989.888 2098.149,980.219 	"/>
	<polygon points="2142.058,1057.933 2241.307,1047.501 2273.247,1060.58 2244.724,1080.014 2145.475,1090.445 2113.536,1077.366 	
		"/>
	<polygon points="384.44,764.666 165.496,638.258 167.326,591.5 206.905,566.535 425.849,692.943 424.019,739.702 	"/>
	<polygon points="696.353,422.439 569.945,203.495 594.91,163.916 641.668,162.086 768.076,381.03 743.112,420.609 	"/>
	<polygon points="1137.591,282.019 1137.591,29.204 1179,7.409 1220.409,29.204 1220.409,282.019 1179,303.813 	"/>
	<polygon points="1589.924,381.03 1716.332,162.086 1763.09,163.916 1788.055,203.495 1661.647,422.439 1614.888,420.609 	"/>
	<polygon points="1932.151,692.943 2151.095,566.535 2190.674,591.5 2192.504,638.258 1973.56,764.666 1933.981,739.702 	"/>
	<polygon points="2072.571,1134.181 2325.386,1134.181 2347.181,1175.59 2325.386,1217 2072.571,1217 2050.777,1175.59 	"/>
	<path d="M1258.016,902.133h-173.556c-7.93,0-15.539-3.129-21.174-8.708l-14.035-13.894c-2.702-2.675-0.808-7.28,2.994-7.28h237.985
		c3.802,0,5.696,4.605,2.994,7.28l-14.035,13.894C1273.555,899.004,1265.946,902.133,1258.016,902.133z M1367.303,742.79
		c0,30.005-24.324,54.329-54.329,54.329c-10.706,0-20.687-3.098-29.099-8.444c-5.635,43.707-43.243,77.763-88.419,77.763h-48.435
		c-49.032,0-89.149-40.117-89.149-89.149v-94.617c0-7.803,6.384-14.187,14.187-14.187c66.12,4.212,132.24,4.212,198.36,0
		c7.803,0,14.187,6.384,14.187,14.187v13.778c8.257-5.066,17.971-7.989,28.369-7.989
		C1342.979,688.461,1367.303,712.785,1367.303,742.79z M1350.023,742.79c0-20.461-16.587-37.048-37.048-37.048
		c-11.387,0-21.573,5.139-28.369,13.223v47.651c6.796,8.084,16.982,13.223,28.369,13.223
		C1333.436,779.839,1350.023,763.252,1350.023,742.79z M1110.47,669.096c8.314-9.373,10.663-22.522,5.005-33.844
		c-3.405-6.814-11.009-12.621-15.86-18.921c-2.62-3.402-4.685-7.077-6.265-11.065c-3.84-9.695-3.755-20.831-0.108-30.557
		c3.78-10.082,11.013-18.185,16.057-27.579c3.065-6.036,5.719-12.69,4.238-19.569c-1.313-6.098-5.482-11.587-11.646-13.27
		c7.117-0.632,13.266,4.509,16.344,10.557c3.059,6.009,3.146,12.899,1.661,19.373c-3.047,13.284-12.469,23.799-16.234,36.78
		c-2.395,7.954-0.933,18.78,3.415,25.916c5.369,8.873,13.639,16.051,16.957,26.1C1128.392,646.215,1123.049,662.483,1110.47,669.096
		z M1172.958,673.525c-9.503-18.726-17.938-41.853-7.028-61.904c10.781-19.815,33.892-25.134,52.287-35.02
		c1.41-0.758,3.372-1.879,4.495-2.607c6.643-4.375,12.875-9.886,15.942-17.419c3.59-8.819,1.087-18.409-4.042-26.068
		c-9.817-14.66-27.427-20.728-42.951-27.292c21.386,3.028,45.037,9.422,55.509,30.37c4.845,9.692,5.234,20.811,0.518,30.599
		c-5.453,11.32-15.777,19.138-26.796,24.617c-15.769,7.84-36.449,12.215-46.822,27.798
		C1162.969,633.278,1169.046,655.297,1172.958,673.525z M1240.749,670.487c-19.712-4.039-35.765-17.925-43.359-36.445
		c-4.53-11.046-5.894-23.881-3.545-35.606c0.55-2.747,1.226-5.441,1.98-8.141c0.748-2.676,1.52-5.356,1.967-8.103
		c0.175-1.079,0.282-2.16,0.318-3.252c0.005-0.136,0.011-0.762,0.02-0.165c-0.555-15.793-14.87-25.458-26.725-33.44
		c-9.047-6.091-18.361-12.486-24.247-21.905c-4.958-8.065-7.569-18.068-3.566-27.058c-1.694,12.866,6.729,24.015,16.766,31.06
		c9.076,6.37,19.422,10.656,28.567,16.925c8.934,6.91,16.669,14.393,20.066,25.523c2.278,7.461,0.875,15.107-1.306,22.411
		c-2.445,8.193-4.162,16.306-3.626,24.937c0.467,7.521,2.219,15.977,5.762,22.549
		C1216.702,653.353,1227.314,663.45,1240.749,670.487z"/>
	<g>
		<path d="M240.365,1600.359H97.503v-220.996h138.939v28.769h-75.517v64.076h74.21v27.46H159.29v73.228h81.075V1600.359z"/>
	</g>
	<g>
		<path d="M2274.706,1409.113h-82.382v67.671h75.516v28.769h-76.825v94.806h-64.728v-220.015h148.419V1409.113z"/>
	</g>
	<g>
		<circle cx="1179" cy="1475.42" r="131.989"/>
		<polygon points="1153.897,1513.948 465.134,748.13 1230.952,1436.893 		"/>
	</g>
</g>
</svg>
